# xmcd
# 
# Track frame offsets:
#     150
#     13600
#     33575
#     51322
#     64632
#     77565
#     90755
#     99070
#     109680
#     119270
#     128372
#     143190
#     157165
#     178275
#     192345
#     204012
#     216415
#     224447
#     234985
#     244442
#     255170
#     282712
# 
# Disc length: 3882
# 
# Revision: 1
# Processed by: cddbd v1.5.2PL0 Copyright (c) Steve Scherf et al.
# Submitted via: fre:ac v1.0.27
# 
DISCID=330f2816
DTITLE=Hollywood Studio Orchestra - 22 Famous Western Film Tracks
DYEAR=1986
DGENRE=Western
TTITLE0=High Noon
TTITLE1=Wand'ring Star
TTITLE2=Once Upon A Time In The West
TTITLE3=Rio Bravo
TTITLE4=The Good, The Bad and The Ugly
TTITLE5=Hang'm High
TTITLE6=A Fistful Of Dollars
TTITLE7=A Gun For Ringo
TTITLE8=The Magnificient Seven
TTITLE9=How The West Was Won
TTITLE10=The Man With The Harmonica
TTITLE11=My Name Is Nobody
TTITLE12=A Fistful Of Dynamite
TTITLE13=Johnny Guitar
TTITLE14=Pancho Villa
TTITLE15=For A Few Dollars More
TTITLE16=Ballad of The Alamo
TTITLE17=The Comancheros
TTITLE18=Bye Bye Colonel
TTITLE19=The Return Of The Seven
TTITLE20=Good Luck Jack
TTITLE21=La Libertad
EXTD=
EXTT0=
EXTT1=
EXTT2=
EXTT3=
EXTT4=
EXTT5=
EXTT6=
EXTT7=
EXTT8=
EXTT9=
EXTT10=
EXTT11=
EXTT12=
EXTT13=
EXTT14=
EXTT15=
EXTT16=
EXTT17=
EXTT18=
EXTT19=
EXTT20=
EXTT21=
PLAYORDER=
